<?xml version="1.0" standalone="no"?>
<svg xmlns:xlink="http://www.w3.org/1999/xlink" id="wave" style="transform:rotate(180deg); transition: 0.3s" viewBox="0 0 1440 490" version="1.1" xmlns="http://www.w3.org/2000/svg"><defs><linearGradient id="sw-gradient-0" x1="0" x2="0" y1="1" y2="0"><stop stop-color="rgba(243, 106, 62, 1)" offset="0%"/><stop stop-color="rgba(255, 179, 11, 1)" offset="100%"/></linearGradient></defs><path style="transform:translate(0, 0px); opacity:1" fill="url(#sw-gradient-0)" d="M0,343L48,343C96,343,192,343,288,334.8C384,327,480,310,576,253.2C672,196,768,98,864,65.3C960,33,1056,65,1152,81.7C1248,98,1344,98,1440,81.7C1536,65,1632,33,1728,73.5C1824,114,1920,229,2016,302.2C2112,376,2208,408,2304,367.5C2400,327,2496,212,2592,187.8C2688,163,2784,229,2880,269.5C2976,310,3072,327,3168,343C3264,359,3360,376,3456,392C3552,408,3648,425,3744,367.5C3840,310,3936,180,4032,163.3C4128,147,4224,245,4320,302.2C4416,359,4512,376,4608,326.7C4704,278,4800,163,4896,122.5C4992,82,5088,114,5184,106.2C5280,98,5376,49,5472,40.8C5568,33,5664,65,5760,65.3C5856,65,5952,33,6048,16.3C6144,0,6240,0,6336,49C6432,98,6528,196,6624,204.2C6720,212,6816,131,6864,89.8L6912,49L6912,490L6864,490C6816,490,6720,490,6624,490C6528,490,6432,490,6336,490C6240,490,6144,490,6048,490C5952,490,5856,490,5760,490C5664,490,5568,490,5472,490C5376,490,5280,490,5184,490C5088,490,4992,490,4896,490C4800,490,4704,490,4608,490C4512,490,4416,490,4320,490C4224,490,4128,490,4032,490C3936,490,3840,490,3744,490C3648,490,3552,490,3456,490C3360,490,3264,490,3168,490C3072,490,2976,490,2880,490C2784,490,2688,490,2592,490C2496,490,2400,490,2304,490C2208,490,2112,490,2016,490C1920,490,1824,490,1728,490C1632,490,1536,490,1440,490C1344,490,1248,490,1152,490C1056,490,960,490,864,490C768,490,672,490,576,490C480,490,384,490,288,490C192,490,96,490,48,490L0,490Z"/></svg>