<?xml version="1.0" standalone="no"?>
<svg xmlns:xlink="http://www.w3.org/1999/xlink" id="wave" style="transform:rotate(180deg); transition: 0.3s" viewBox="0 0 1440 280" version="1.1" xmlns="http://www.w3.org/2000/svg"><defs><linearGradient id="sw-gradient-0" x1="0" x2="0" y1="1" y2="0"><stop stop-color="rgba(246, 234, 219, 0.38)" offset="0%"/><stop stop-color="rgba(92, 64, 51, 0.55)" offset="100%"/></linearGradient></defs><path style="transform:translate(0, 0px); opacity:1" fill="url(#sw-gradient-0)" d="M0,252L40,210C80,168,160,84,240,79.3C320,75,400,149,480,182C560,215,640,205,720,205.3C800,205,880,215,960,182C1040,149,1120,75,1200,42C1280,9,1360,19,1440,28C1520,37,1600,47,1680,60.7C1760,75,1840,93,1920,112C2000,131,2080,149,2160,130.7C2240,112,2320,56,2400,46.7C2480,37,2560,75,2640,88.7C2720,103,2800,93,2880,102.7C2960,112,3040,140,3120,135.3C3200,131,3280,93,3360,98C3440,103,3520,149,3600,182C3680,215,3760,233,3840,219.3C3920,205,4000,159,4080,154C4160,149,4240,187,4320,205.3C4400,224,4480,224,4560,219.3C4640,215,4720,205,4800,172.7C4880,140,4960,84,5040,65.3C5120,47,5200,65,5280,74.7C5360,84,5440,84,5520,88.7C5600,93,5680,103,5720,107.3L5760,112L5760,280L5720,280C5680,280,5600,280,5520,280C5440,280,5360,280,5280,280C5200,280,5120,280,5040,280C4960,280,4880,280,4800,280C4720,280,4640,280,4560,280C4480,280,4400,280,4320,280C4240,280,4160,280,4080,280C4000,280,3920,280,3840,280C3760,280,3680,280,3600,280C3520,280,3440,280,3360,280C3280,280,3200,280,3120,280C3040,280,2960,280,2880,280C2800,280,2720,280,2640,280C2560,280,2480,280,2400,280C2320,280,2240,280,2160,280C2080,280,2000,280,1920,280C1840,280,1760,280,1680,280C1600,280,1520,280,1440,280C1360,280,1280,280,1200,280C1120,280,1040,280,960,280C880,280,800,280,720,280C640,280,560,280,480,280C400,280,320,280,240,280C160,280,80,280,40,280L0,280Z"/></svg>