<?xml version="1.0" standalone="no"?>
<svg xmlns:xlink="http://www.w3.org/1999/xlink" id="wave" style="transform:rotate(180deg); transition: 0.3s" viewBox="0 0 1440 250" version="1.1" xmlns="http://www.w3.org/2000/svg"><defs><linearGradient id="sw-gradient-0" x1="0" x2="0" y1="1" y2="0"><stop stop-color="rgba(243, 106, 62, 1)" offset="0%"/><stop stop-color="rgba(255, 179, 11, 1)" offset="100%"/></linearGradient></defs><path style="transform:translate(0, 0px); opacity:1" fill="url(#sw-gradient-0)" d="M0,175L48,175C96,175,192,175,288,170.8C384,167,480,158,576,129.2C672,100,768,50,864,33.3C960,17,1056,33,1152,41.7C1248,50,1344,50,1440,41.7C1536,33,1632,17,1728,37.5C1824,58,1920,117,2016,154.2C2112,192,2208,208,2304,187.5C2400,167,2496,108,2592,95.8C2688,83,2784,117,2880,137.5C2976,158,3072,167,3168,175C3264,183,3360,192,3456,200C3552,208,3648,217,3744,187.5C3840,158,3936,92,4032,83.3C4128,75,4224,125,4320,154.2C4416,183,4512,192,4608,166.7C4704,142,4800,83,4896,62.5C4992,42,5088,58,5184,54.2C5280,50,5376,25,5472,20.8C5568,17,5664,33,5760,33.3C5856,33,5952,17,6048,8.3C6144,0,6240,0,6336,25C6432,50,6528,100,6624,104.2C6720,108,6816,67,6864,45.8L6912,25L6912,250L6864,250C6816,250,6720,250,6624,250C6528,250,6432,250,6336,250C6240,250,6144,250,6048,250C5952,250,5856,250,5760,250C5664,250,5568,250,5472,250C5376,250,5280,250,5184,250C5088,250,4992,250,4896,250C4800,250,4704,250,4608,250C4512,250,4416,250,4320,250C4224,250,4128,250,4032,250C3936,250,3840,250,3744,250C3648,250,3552,250,3456,250C3360,250,3264,250,3168,250C3072,250,2976,250,2880,250C2784,250,2688,250,2592,250C2496,250,2400,250,2304,250C2208,250,2112,250,2016,250C1920,250,1824,250,1728,250C1632,250,1536,250,1440,250C1344,250,1248,250,1152,250C1056,250,960,250,864,250C768,250,672,250,576,250C480,250,384,250,288,250C192,250,96,250,48,250L0,250Z"/></svg>